<svg width="385" height="217" viewBox="0 0 385 217" fill="none" xmlns="http://www.w3.org/2000/svg">
<rect width="385" height="216.703" fill="#DEF7D1"/>
<path d="M38.5003 60.5C28.1003 60.5 21.2003 53.7 21.2003 43.25C21.2003 32.8 28.1003 26 38.5003 26C47.9503 26 54.5503 31 54.5503 39V39.7H48.6003V39C48.6003 33.9 45.3503 31.15 38.5503 31.15C30.7003 31.15 26.9003 34.9 26.9003 43.25C26.9003 51.6 30.7003 55.3 38.5503 55.3C45.3503 55.3 48.6003 52.6 48.6003 47.45V46.8H54.5503V47.45C54.5503 55.5 48.0003 60.5 38.5003 60.5ZM64.8284 60.5C59.6784 60.5 56.4284 58.1 56.4284 54C56.4284 50.15 59.5284 48.15 64.4284 47.6L75.7284 46.4V44.95C75.7284 40.85 73.9284 39.4 69.1784 39.4C64.5784 39.4 62.3284 40.9 62.3284 44.55V44.75H56.9784V44.55C56.9784 38.9 61.6784 34.65 69.5784 34.65C77.4784 34.65 81.0284 38.95 81.0284 44.9V60H76.0784V53.8H75.7284C74.4284 58 70.4784 60.5 64.8284 60.5ZM61.8284 53.65C61.8284 55.65 63.1784 56.6 66.2784 56.6C71.9284 56.6 75.7284 54.5 75.7284 49.6L65.9784 50.7C63.1784 51.05 61.8284 51.7 61.8284 53.65ZM90.2488 60H84.8488V26.5H90.2488V60ZM99.6491 60H94.2491V26.5H99.6491V60ZM118.494 60H113.094V39.65H109.344V35.15H113.144C113.744 29.7 117.894 26.5 124.944 26.5H127.394V30.5H124.094C120.144 30.5 118.094 31.55 118.394 35.15H127.394V39.65H118.494V60ZM142.084 60.5C133.834 60.5 128.284 55.25 128.284 47.6C128.284 39.85 133.834 34.65 142.084 34.65C150.384 34.65 155.934 39.85 155.934 47.6C155.934 55.25 150.384 60.5 142.084 60.5ZM142.084 55.7C148.134 55.7 150.634 52.85 150.634 47.6C150.634 42.3 148.134 39.4 142.084 39.4C136.084 39.4 133.584 42.3 133.584 47.6C133.584 52.85 136.084 55.7 142.084 55.7ZM164.253 60H158.853V35.15H163.803V41.85H164.153C164.903 37.85 167.603 34.65 172.703 34.65C178.353 34.65 180.803 38.7 180.803 43.4V46.65H175.453V44.45C175.453 40.9 173.953 39.25 170.253 39.25C166.003 39.25 164.253 41.6 164.253 46.05V60ZM27.6003 118.5H22.2003V85.15H27.1503V92.05H27.6003C28.6003 87.45 32.1003 84.65 37.9503 84.65C45.6503 84.65 50.0003 89.9 50.0003 97.6C50.0003 105.3 45.7503 110.5 38.0003 110.5C32.4003 110.5 28.8003 107.55 27.8003 103H27.6003V118.5ZM27.6003 98C27.6003 103.1 30.8503 105.6 36.1503 105.6C41.5003 105.6 44.6003 103.55 44.6003 97.6C44.6003 91.6 41.4503 89.6 36.2503 89.6C30.7003 89.6 27.6003 92.2 27.6003 97.55V98ZM58.1433 110H52.7433V85.15H57.6933V91.85H58.0433C58.7933 87.85 61.4933 84.65 66.5933 84.65C72.2433 84.65 74.6933 88.7 74.6933 93.4V96.65H69.3433V94.45C69.3433 90.9 67.8433 89.25 64.1433 89.25C59.8933 89.25 58.1433 91.6 58.1433 96.05V110ZM89.7851 110.5C81.5351 110.5 75.9851 105.25 75.9851 97.6C75.9851 89.85 81.5351 84.65 89.7851 84.65C98.0851 84.65 103.635 89.85 103.635 97.6C103.635 105.25 98.0851 110.5 89.7851 110.5ZM89.7851 105.7C95.8351 105.7 98.3351 102.85 98.3351 97.6C98.3351 92.3 95.8351 89.4 89.7851 89.4C83.7851 89.4 81.2851 92.3 81.2851 97.6C81.2851 102.85 83.7851 105.7 89.7851 105.7ZM111.954 118.5H106.554V85.15H111.504V92.05H111.954C112.954 87.45 116.454 84.65 122.304 84.65C130.004 84.65 134.354 89.9 134.354 97.6C134.354 105.3 130.104 110.5 122.354 110.5C116.754 110.5 113.154 107.55 112.154 103H111.954V118.5ZM111.954 98C111.954 103.1 115.204 105.6 120.504 105.6C125.854 105.6 128.954 103.55 128.954 97.6C128.954 91.6 125.804 89.6 120.604 89.6C115.054 89.6 111.954 92.2 111.954 97.55V98ZM149.797 110.5C141.547 110.5 135.997 105.25 135.997 97.6C135.997 89.85 141.547 84.65 149.797 84.65C158.097 84.65 163.647 89.85 163.647 97.6C163.647 105.25 158.097 110.5 149.797 110.5ZM149.797 105.7C155.847 105.7 158.347 102.85 158.347 97.6C158.347 92.3 155.847 89.4 149.797 89.4C143.797 89.4 141.297 92.3 141.297 97.6C141.297 102.85 143.797 105.7 149.797 105.7ZM178.316 110.5C170.316 110.5 165.766 107.35 165.766 101.6V101.45H171.166V101.85C171.166 105.1 173.116 106.15 178.316 106.15C183.166 106.15 184.616 105.15 184.616 102.95C184.616 100.9 183.416 100.25 179.866 99.75L173.066 98.85C168.366 98.25 165.516 96.25 165.516 92.1C165.516 87.75 169.466 84.65 177.116 84.65C184.716 84.65 189.316 87.7 189.316 93.6V93.75H183.966V93.45C183.966 90.5 182.466 88.95 176.966 88.95C172.416 88.95 170.816 89.95 170.816 92.3C170.816 94.25 171.816 94.95 175.566 95.45L181.316 96.25C187.216 97 189.916 99 189.916 103.1C189.916 107.75 185.316 110.5 178.316 110.5ZM200.112 110.5C194.962 110.5 191.712 108.1 191.712 104C191.712 100.15 194.812 98.15 199.712 97.6L211.012 96.4V94.95C211.012 90.85 209.212 89.4 204.462 89.4C199.862 89.4 197.612 90.9 197.612 94.55V94.75H192.262V94.55C192.262 88.9 196.962 84.65 204.862 84.65C212.762 84.65 216.312 88.95 216.312 94.9V110H211.362V103.8H211.012C209.712 108 205.762 110.5 200.112 110.5ZM197.112 103.65C197.112 105.65 198.462 106.6 201.562 106.6C207.212 106.6 211.012 104.5 211.012 99.6L201.262 100.7C198.462 101.05 197.112 101.7 197.112 103.65ZM225.532 110H220.132V76.5H225.532V110ZM241.282 110.5C233.282 110.5 228.732 107.35 228.732 101.6V101.45H234.132V101.85C234.132 105.1 236.082 106.15 241.282 106.15C246.132 106.15 247.582 105.15 247.582 102.95C247.582 100.9 246.382 100.25 242.832 99.75L236.032 98.85C231.332 98.25 228.482 96.25 228.482 92.1C228.482 87.75 232.432 84.65 240.082 84.65C247.682 84.65 252.282 87.7 252.282 93.6V93.75H246.932V93.45C246.932 90.5 245.432 88.95 239.932 88.95C235.382 88.95 233.782 89.95 233.782 92.3C233.782 94.25 234.782 94.95 238.532 95.45L244.282 96.25C250.182 97 252.882 99 252.882 103.1C252.882 107.75 248.282 110.5 241.282 110.5Z" fill="#F66C21"/>
<path d="M194.01 176.855C194.97 176.855 195.738 177.143 196.314 177.719C196.906 178.279 197.202 179.007 197.202 179.903C197.202 180.799 196.906 181.527 196.314 182.087C195.738 182.647 194.97 182.927 194.01 182.927C193.866 182.927 193.65 182.911 193.362 182.879C193.026 187.119 191.818 190.495 189.738 193.007C187.674 195.519 184.618 197.367 180.57 198.551L179.178 195.311C181.578 194.623 183.538 193.759 185.058 192.719C186.578 191.663 187.738 190.367 188.538 188.831C189.354 187.279 189.85 185.391 190.026 183.167H175.962V180.071H190.842V179.903C190.842 179.007 191.13 178.279 191.706 177.719C192.298 177.143 193.066 176.855 194.01 176.855ZM195.45 179.687C195.45 179.303 195.322 179.007 195.066 178.799C194.826 178.591 194.474 178.487 194.01 178.487C193.562 178.487 193.21 178.591 192.954 178.799C192.714 179.007 192.594 179.303 192.594 179.687V180.119C192.594 180.503 192.714 180.799 192.954 181.007C193.21 181.215 193.562 181.319 194.01 181.319C194.474 181.319 194.826 181.215 195.066 181.007C195.322 180.799 195.45 180.503 195.45 180.119V179.687ZM203.946 197.591H200.682V179.735H218.682V197.591H215.418V195.815H203.946V197.591ZM203.946 182.759V192.791H215.418V182.759H203.946ZM242.13 176.375C243.09 176.375 243.858 176.663 244.434 177.239C245.026 177.799 245.322 178.527 245.322 179.423C245.322 180.255 245.066 180.943 244.554 181.487C244.058 182.031 243.394 182.343 242.562 182.423V184.655H235.05V195.455C235.05 196.479 234.802 197.231 234.306 197.711C233.826 198.207 233.05 198.455 231.978 198.455H229.05L228.282 195.479H231.858V184.655H223.602V181.655H231.834V178.055H235.05V181.655H239.874C239.266 181.095 238.962 180.351 238.962 179.423C238.962 178.527 239.25 177.799 239.826 177.239C240.418 176.663 241.186 176.375 242.13 176.375ZM243.57 179.207C243.57 178.823 243.442 178.527 243.186 178.319C242.946 178.111 242.594 178.007 242.13 178.007C241.682 178.007 241.33 178.111 241.074 178.319C240.834 178.527 240.714 178.823 240.714 179.207V179.639C240.714 180.023 240.834 180.319 241.074 180.527C241.33 180.735 241.682 180.839 242.13 180.839C242.594 180.839 242.946 180.735 243.186 180.527C243.442 180.319 243.57 180.023 243.57 179.639V179.207ZM229.17 186.983C228.802 188.583 228.322 190.175 227.73 191.759C227.138 193.327 226.482 194.735 225.762 195.983L222.762 194.399C223.498 193.247 224.146 191.967 224.706 190.559C225.282 189.151 225.746 187.695 226.098 186.191L229.17 186.983ZM240.57 186.191C241.274 188.751 242.402 191.495 243.954 194.423L240.978 195.983C239.394 192.831 238.21 189.863 237.426 187.079L240.57 186.191ZM267.282 189.935H248.082V186.575H267.282V189.935ZM292.386 177.095C292.882 178.295 293.29 179.511 293.61 180.743L291.834 181.175C291.338 179.575 290.922 178.367 290.586 177.551L292.386 177.095ZM288.906 181.919C288.538 180.527 288.13 179.303 287.682 178.247L289.53 177.791C289.962 178.799 290.37 180.023 290.754 181.463L288.906 181.919ZM287.634 178.439V182.831H291.762V185.855H287.634V186.695C287.634 189.015 287.298 190.959 286.626 192.527C285.97 194.079 284.954 195.359 283.578 196.367C282.218 197.359 280.442 198.167 278.25 198.791L276.834 195.815C278.818 195.255 280.346 194.615 281.418 193.895C282.506 193.159 283.274 192.239 283.722 191.135C284.186 190.015 284.418 188.543 284.418 186.719V185.855H277.986V191.231H274.77V185.855H270.642V182.831H274.77V178.535H277.986V182.831H284.418V178.439H287.634ZM315.761 188.231C315.025 190.503 313.993 192.519 312.665 194.279C311.337 196.023 309.753 197.279 307.913 198.047H304.985L305.009 178.655H308.177V194.327C309.137 193.607 310.009 192.655 310.793 191.471C311.593 190.287 312.329 188.687 313.001 186.671L315.761 188.231ZM298.769 178.775H301.937V185.807C301.937 188.975 301.465 191.543 300.521 193.511C299.593 195.479 298.201 197.167 296.345 198.575L294.161 195.863C295.745 194.743 296.905 193.431 297.641 191.927C298.393 190.423 298.769 188.423 298.769 185.927V178.775ZM325.937 181.247H323.297V180.335H317.801V178.103H323.297V177.167H325.937V178.103H331.097V177.167H333.785V178.103H339.641V180.335H333.785V181.247H331.097V180.335H325.937V181.247ZM339.329 195.215C338.321 195.039 337.337 194.807 336.377 194.519C336.377 195.271 336.369 195.839 336.353 196.223C336.337 196.607 336.313 196.943 336.281 197.231C336.201 197.711 336.049 198.087 335.825 198.359C335.617 198.631 335.281 198.823 334.817 198.935C334.369 199.063 333.745 199.127 332.945 199.127H329.561L328.985 196.991H332.945C333.217 196.991 333.401 196.959 333.497 196.895C333.609 196.831 333.689 196.711 333.737 196.535C333.785 196.343 333.809 195.959 333.809 195.383H329.009C328.641 196.567 327.729 197.471 326.273 198.095C324.833 198.735 322.793 199.191 320.153 199.463L319.457 197.303C321.489 197.063 323.017 196.815 324.041 196.559C325.081 196.287 325.809 195.895 326.225 195.383H321.521V194.423C320.513 194.759 319.393 195.023 318.161 195.215L317.225 193.079C318.697 192.839 319.897 192.607 320.825 192.383C321.769 192.143 322.545 191.879 323.153 191.591H317.705V189.455H325.457C325.569 189.279 325.697 189.039 325.841 188.735H320.297V181.727H337.145V188.735H328.649C328.521 188.975 328.377 189.215 328.217 189.455H339.737V191.591H334.625C335.201 191.879 335.929 192.143 336.809 192.383C337.689 192.623 338.809 192.863 340.169 193.103L339.329 195.215ZM334.481 183.647H322.913V184.367H334.481V183.647ZM334.481 186.047H322.913V186.815H334.481V186.047ZM329.201 193.367H333.449C332.425 192.823 331.585 192.231 330.929 191.591H326.441C325.785 192.231 324.969 192.823 323.993 193.367H326.729V192.071H329.201V193.367ZM355.409 193.607C356.177 194.199 357.249 194.727 358.625 195.191C360.017 195.655 361.817 196.119 364.025 196.583L363.065 199.055L361.793 198.695C360.001 198.199 358.657 197.783 357.761 197.447C356.865 197.127 356.105 196.719 355.481 196.223C354.873 195.727 354.433 195.079 354.161 194.279H353.921V199.415H351.137V194.279H350.897C350.625 195.111 350.193 195.775 349.601 196.271C349.009 196.767 348.273 197.175 347.393 197.495C346.529 197.831 345.201 198.255 343.409 198.767L342.377 199.055L341.393 196.559C343.489 196.079 345.201 195.615 346.529 195.167C347.873 194.703 348.913 194.183 349.649 193.607H341.897V191.255H351.137V190.247H344.057V184.727C343.641 185.095 343.249 185.415 342.881 185.687L341.249 183.431C342.433 182.551 343.457 181.559 344.321 180.455C345.201 179.351 345.897 178.167 346.409 176.903L349.121 177.695C348.961 178.127 348.769 178.567 348.545 179.015H352.769C353.121 178.407 353.425 177.751 353.681 177.047L356.489 177.455C356.297 177.951 356.057 178.471 355.769 179.015H362.609V181.175H355.289V182.231H361.985V184.127H355.289V185.183H361.985V187.079H355.289V188.135H362.777V190.247H353.921V191.255H363.545V193.607H355.409ZM352.529 181.175H347.249C347.201 181.239 347.145 181.311 347.081 181.391C347.017 181.471 346.945 181.575 346.865 181.703V182.231H352.529V181.175ZM346.865 185.183H352.529V184.127H346.865V185.183ZM352.529 187.079H346.865V188.135H352.529V187.079Z" fill="#F66C21"/>
<path d="M341.204 38.2965L346.793 28.6094H365.407L341.204 70.5273L317 28.6094H335.615L341.204 38.2965Z" fill="#F66C21"/>
<path d="M340.803 113.405C352.384 113.405 361.772 104.018 361.772 92.4371C361.772 80.8566 352.384 71.4688 340.803 71.4688C329.223 71.4688 319.835 80.8566 319.835 92.4371C319.835 104.018 329.223 113.405 340.803 113.405Z" fill="#F66C21"/>
</svg>
